<svg id="Ebene_1" data-name="Ebene 1" xmlns="http://www.w3.org/2000/svg" viewBox="0 0 54.7 54.68"><defs><style>.cls-1{fill:#b1b2b3;}.cls-1,.cls-2{fill-rule:evenodd;}.cls-2{fill:#fff;}</style></defs><title>avatar</title><path class="cls-1" d="M32.39,5.51A25.67,25.67,0,1,1,6.71,31.18,25.68,25.68,0,0,1,32.39,5.51Z" transform="translate(-5.04 -3.84)"/><path class="cls-2" d="M13.62,47.4a24.47,24.47,0,0,0,37.75-.24c-2.57-3.24-8.14-5.67-14.89-6.35-.47-1.22-1.05-2.58-1.66-4,3.62-1.11,6.29-5,6.29-10.92,0-7.11-3.81-10.71-8.51-10.71s-8.51,3.6-8.51,10.71c0,5.81,2.54,9.64,6,10.84-.64,1.44-1.25,2.84-1.73,4.09C21.6,41.59,16.06,44.09,13.62,47.4Z" transform="translate(-5.04 -3.84)"/><path class="cls-2" d="M32.39,3.84A27.34,27.34,0,1,0,59.74,31.18,27.34,27.34,0,0,0,32.39,3.84Zm0,51.87A24.53,24.53,0,1,1,56.93,31.18,24.54,24.54,0,0,1,32.39,55.71Z" transform="translate(-5.04 -3.84)"/></svg>